0
SECTION
2
HEADER
9
$INSUNITS
70
4
9
$ACADVER
1
AC1014
9
$HANDSEED
5
FFFF
0
ENDSEC
0
SECTION
2
TABLES
0
TABLE
2
VPORT
5
8
100
AcDbSymbolTable
0
ENDTAB
0
TABLE
2
LTYPE
5
5
100
AcDbSymbolTable
0
LTYPE
5
14
100
AcDbSymbolTableRecord
100
AcDbLinetypeTableRecord
2
BYBLOCK
70
0
0
LTYPE
5
15
100
AcDbSymbolTableRecord
100
AcDbLinetypeTableRecord
2
BYLAYER
70
0
0
ENDTAB
0
TABLE
2
LAYER
5
2
100
AcDbSymbolTable
70
2
0
LAYER
5
50
100
AcDbSymbolTableRecord
100
AcDbLayerTableRecord
2
0
70
0
6
CONTINUOUS
0
ENDTAB
0
TABLE
2
STYLE
5
3
100
AcDbSymbolTable
70
1
0
STYLE
5
11
100
AcDbSymbolTableRecord
100
AcDbTextStyleTableRecord
2
STANDARD
70
0
0
ENDTAB
0
TABLE
2
VIEW
5
6
100
AcDbSymbolTable
70
0
0
ENDTAB
0
TABLE
2
UCS
5
7
100
AcDbSymbolTable
70
0
0
ENDTAB
0
TABLE
2
APPID
5
9
100
AcDbSymbolTable
70
2
0
APPID
5
12
100
AcDbSymbolTableRecord
100
AcDbRegAppTableRecord
2
ACAD
70
0
0
ENDTAB
0
TABLE
2
DIMSTYLE
5
A
100
AcDbSymbolTable
70
1
0
ENDTAB
0
TABLE
2
BLOCK_RECORD
5
1
100
AcDbSymbolTable
70
1
0
BLOCK_RECORD
5
1F
100
AcDbSymbolTableRecord
100
AcDbBlockTableRecord
2
*MODEL_SPACE
0
BLOCK_RECORD
5
1B
100
AcDbSymbolTableRecord
100
AcDbBlockTableRecord
2
*PAPER_SPACE
0
ENDTAB
0
ENDSEC
0
SECTION
2
BLOCKS
0
BLOCK
5
20
100
AcDbEntity
100
AcDbBlockBegin
2
*MODEL_SPACE
0
ENDBLK
5
21
100
AcDbEntity
100
AcDbBlockEnd
0
BLOCK
5
1C
100
AcDbEntity
100
AcDbBlockBegin
2
*PAPER_SPACE
0
ENDBLK
5
1D
100
AcDbEntity
100
AcDbBlockEnd
0
ENDSEC
0
SECTION
2
ENTITIES
0
LINE
5
100
100
AcDbEntity
8
0
100
AcDbLine
10
0
20
0
30
0
11
-1.0617345419113451e-07
21
-43.599999025464058
31
0
0
LINE
5
101
100
AcDbEntity
8
0
100
AcDbLine
10
-1.0617345419113451e-07
20
-43.599999025464058
30
0
11
171.19622887280767
21
-43.599999025464058
31
0
0
LINE
5
102
100
AcDbEntity
8
0
100
AcDbLine
10
171.19622887280767
20
-43.599999025464058
30
0
11
171.19622887280764
21
-25.487400861202069
31
0
0
LINE
5
103
100
AcDbEntity
8
0
100
AcDbLine
10
169.98896699411489
20
115.36020221754428
30
0
11
169.98896699411492
21
123.40775463157114
31
0
0
LINE
5
104
100
AcDbEntity
8
0
100
AcDbLine
10
166.98896699411483
20
126.40775463157118
30
0
11
158.24714109063058
21
126.40775463157118
31
0
0
LINE
5
105
100
AcDbEntity
8
0
100
AcDbLine
10
156.12582074707092
20
125.52907497513083
30
0
11
123.08757904427958
21
92.490833272339486
31
0
0
LINE
5
106
100
AcDbEntity
8
0
100
AcDbLine
10
106.11701629579818
20
85.461396020812103
30
0
11
58.050180433023939
21
85.461396020812117
31
0
0
LINE
5
107
100
AcDbEntity
8
0
100
AcDbLine
10
42.279874465782505
20
98.76001679908353
30
0
11
37.970684738313537
21
123.91651460822689
31
0
0
LINE
5
108
100
AcDbEntity
8
0
100
AcDbLine
10
35.013752369455759
20
126.41000600415282
30
0
11
30.679269417019349
21
126.41000600415282
31
0
0
LINE
5
109
100
AcDbEntity
8
0
100
AcDbLine
10
27.721628697873449
20
123.91236183068429
30
0
11
23.464677216705525
21
98.849383807592659
31
0
0
LINE
5
110
100
AcDbEntity
8
0
100
AcDbLine
10
7.6905933812606984
20
85.528614882427235
30
0
11
1.0474234445127116e-14
21
85.528614882427235
31
0
0
LINE
5
111
100
AcDbEntity
8
0
100
AcDbLine
10
1.0474234445127116e-14
20
85.528614882427235
30
0
11
0
21
0
31
0
0
CIRCLE
5
112
100
AcDbEntity
8
0
100
AcDbCircle
10
11.246252020555547
20
-37.240941394366956
30
0
40
1.9499999999999986
210
0
220
0
230
1
0
CIRCLE
5
113
100
AcDbEntity
8
0
100
AcDbCircle
10
166.18448264544131
20
-37.238465141665088
30
0
40
1.9500000000000084
210
0
220
0
230
1
0
CIRCLE
5
114
100
AcDbEntity
8
0
100
AcDbCircle
10
165.08494131019455
20
121.51189162964548
30
0
40
1.9500000000000073
210
0
220
0
230
1
0
CIRCLE
5
115
100
AcDbEntity
8
0
100
AcDbCircle
10
33.00500156765338
20
121.51125577147468
30
0
40
1.9500000000000004
210
0
220
0
230
1
0
CIRCLE
5
116
100
AcDbEntity
8
0
100
AcDbCircle
10
33.710001601139084
20
-33.89375160986674
30
0
40
1.4499999999999984
210
0
220
0
230
1
0
CIRCLE
5
117
100
AcDbEntity
8
0
100
AcDbCircle
10
141.71000673086382
20
-33.89375160986674
30
0
40
1.449999999999996
210
0
220
0
230
1
0
CIRCLE
5
118
100
AcDbEntity
8
0
100
AcDbCircle
10
5.6374984900836917
20
3.2212754665792236
30
0
40
1.4499999999999997
210
0
220
0
230
1
0
CIRCLE
5
119
100
AcDbEntity
8
0
100
AcDbCircle
10
124.82902562397945
20
3.3025086380218283
30
0
40
1.4499999999999953
210
0
220
0
230
1
0
CIRCLE
5
120
100
AcDbEntity
8
0
100
AcDbCircle
10
122.68749844834306
20
75.13749857894264
30
0
40
1.4500000000000013
210
0
220
0
230
1
0
CIRCLE
5
121
100
AcDbEntity
8
0
100
AcDbCircle
10
4.4904099066186323
20
75.134230113947282
30
0
40
1.4500000000000002
210
0
220
0
230
1
0
CIRCLE
5
122
100
AcDbEntity
8
0
100
AcDbCircle
10
33.710001601139084
20
-33.89375160986674
30
0
40
3.1500000000000012
210
0
220
0
230
1
0
CIRCLE
5
123
100
AcDbEntity
8
0
100
AcDbCircle
10
141.71000673086382
20
-33.89375160986674
30
0
40
3.1499999999999986
210
0
220
0
230
1
0
CIRCLE
5
124
100
AcDbEntity
8
0
100
AcDbCircle
10
4.4904099066186376
20
75.134230113947339
30
0
40
4.1500000000000012
210
0
220
0
230
1
0
CIRCLE
5
125
100
AcDbEntity
8
0
100
AcDbCircle
10
122.68749844834304
20
75.137498578942811
30
0
40
4.1500000000000021
210
0
220
0
230
1
0
CIRCLE
5
126
100
AcDbEntity
8
0
100
AcDbCircle
10
124.82902562403247
20
3.3025086385172524
30
0
40
4.1500000000000021
210
0
220
0
230
1
0
CIRCLE
5
127
100
AcDbEntity
8
0
100
AcDbCircle
10
5.6374984900837388
20
3.2212754665792227
30
0
40
4.1500000000000004
210
0
220
0
230
1
0
LINE
5
128
100
AcDbEntity
8
0
100
AcDbLine
10
105.00000084847996
20
-4.9999947852710207
30
0
11
37.000015598760839
21
-4.9999947852710207
31
0
0
LINE
5
129
100
AcDbEntity
8
0
100
AcDbLine
10
12.640299295889946
20
79.284455480252447
30
0
11
114.53738849043074
21
79.287273208125043
31
0
0
LINE
5
130
100
AcDbEntity
8
0
100
AcDbLine
10
116.67287441368998
20
-1.0842235294274605
30
0
11
13.781540732874671
21
-0.94013359188437029
31
0
0
LINE
5
131
100
AcDbEntity
8
0
100
AcDbLine
10
9.7874870781627799
20
3.2115430969237124
30
0
11
9.787153362439863
21
3.0692430830744675
31
0
0
LINE
5
132
100
AcDbEntity
8
0
100
AcDbLine
10
8.6404099066206008
20
75.284455481833859
30
0
11
8.6404099066186379
21
75.13423011389331
31
0
0
LINE
5
133
100
AcDbEntity
8
0
100
AcDbLine
10
118.53749844838288
20
75.137516669560796
30
0
11
118.53749910112333
21
75.287255772914108
31
0
0
LINE
5
134
100
AcDbEntity
8
0
100
AcDbLine
10
126.88700205861777
20
70.987509040588705
30
0
11
122.68750878668018
21
70.987498578955694
31
0
0
LINE
5
135
100
AcDbEntity
8
0
100
AcDbLine
10
127.75877813303497
20
7.452508638517255
30
0
11
124.82902562403247
21
7.452508638517255
31
0
0
LINE
5
136
100
AcDbEntity
8
0
100
AcDbLine
10
120.67847212138938
20
2.9101709181969904
30
0
11
120.67902969335522
21
3.3083203291837258
31
0
0
LINE
5
137
100
AcDbEntity
8
0
100
AcDbLine
10
138.56000673086382
20
-33.89375160986674
30
0
11
138.56000673086382
21
-43.599999025464058
31
0
0
LINE
5
138
100
AcDbEntity
8
0
100
AcDbLine
10
138.56000673086382
20
-33.89375160986674
30
0
11
138.56000673086382
21
-26.000000387430191
31
0
0
LINE
5
139
100
AcDbEntity
8
0
100
AcDbLine
10
47.660001601139101
20
-26.000000387430191
30
0
11
36.860001601139082
21
-26.000000387430191
31
0
0
LINE
5
140
100
AcDbEntity
8
0
100
AcDbLine
10
36.860001601139082
20
-26.000000387430191
30
0
11
36.860001601139082
21
-33.89375160986674
31
0
0
LINE
5
141
100
AcDbEntity
8
0
100
AcDbLine
10
36.860001601139082
20
-43.599999025464058
30
0
11
36.860001601139082
21
-33.89375160986674
31
0
0
LINE
5
142
100
AcDbEntity
8
0
100
AcDbLine
10
1.4874984900837385
20
3.2212754665792227
30
0
11
1.4874984900837416
21
-43.599999025464058
31
0
0
LINE
5
143
100
AcDbEntity
8
0
100
AcDbLine
10
0.34040990661863607
20
75.134230113947268
30
0
11
0.3404099066186338
21
85.528614882427235
31
0
0
LINE
5
144
100
AcDbEntity
8
0
100
AcDbLine
10
171.19622887280764
20
-25.487400861202069
30
0
11
127.75877813303497
21
7.452508638517255
31
0
0
ARC
5
145
100
AcDbEntity
8
0
100
AcDbCircle
10
13.787142362909041
20
3.059862485816383
30
0
40
3.9999999999349174
210
0
220
0
230
1
100
AcDbArc
50
179.86563271878646
51
269.91976253393273
0
ARC
5
146
100
AcDbEntity
8
0
100
AcDbCircle
10
116.67847604373253
20
2.9157725482327121
30
0
40
3.9999999999444875
210
0
220
0
230
1
100
AcDbArc
50
269.91976253381478
51
359.91976253391198
0
ARC
5
147
100
AcDbEntity
8
0
100
AcDbCircle
10
7.6905933812606984
20
101.52861488242726
30
0
40
16.000000000000032
210
-0
220
0
230
1
100
AcDbArc
50
270
51
350.36029749391912
0
ARC
5
148
100
AcDbEntity
8
0
100
AcDbCircle
10
58.050180433023939
20
101.46139602081205
30
0
40
15.999999999999918
210
0
220
0
230
1
100
AcDbArc
50
189.72016024455451
51
270
0
ARC
5
149
100
AcDbEntity
8
0
100
AcDbCircle
10
30.679269417019349
20
123.41000600415282
30
0
40
3.0000000000000071
210
0
220
-0
230
1
100
AcDbArc
50
90
51
170.3602974939194
0
ARC
5
150
100
AcDbEntity
8
0
100
AcDbCircle
10
35.013752369455759
20
123.41000600415282
30
0
40
2.9999999999999987
210
0
220
-0
230
1
100
AcDbArc
50
9.7201602445540249
51
90
0
ARC
5
151
100
AcDbEntity
8
0
100
AcDbCircle
10
166.98896699411489
20
123.40775463157114
30
0
40
3.0000000000000426
210
0
220
-0
230
1
100
AcDbArc
50
0
51
90.000000000001094
0
ARC
5
152
100
AcDbEntity
8
0
100
AcDbCircle
10
166.9889669941148
20
115.3602022175443
30
0
40
3.0000000000000697
210
0
220
0
230
1
100
AcDbArc
50
314.99997967070465
51
360
0
ARC
5
153
100
AcDbEntity
8
0
100
AcDbCircle
10
158.24714109063058
20
123.40775463157117
30
0
40
3.0000000000000071
210
0
220
-0
230
1
100
AcDbArc
50
90
51
135
0
ARC
5
154
100
AcDbEntity
8
0
100
AcDbCircle
10
106.11701629579208
20
109.46139602081249
30
0
40
24.000000000000394
210
-0
220
0
230
1
100
AcDbArc
50
270.00000000001455
51
315.0000000000245
0
CIRCLE
5
155
100
AcDbEntity
8
0
100
AcDbCircle
10
166.18448264544131
20
-37.238465141665088
30
0
40
2.8000000000000034
210
0
220
0
230
1
0
CIRCLE
5
156
100
AcDbEntity
8
0
100
AcDbCircle
10
11.246252020555547
20
-37.240941394366956
30
0
40
2.8000000000000007
210
0
220
0
230
1
0
CIRCLE
5
157
100
AcDbEntity
8
0
100
AcDbCircle
10
33.00500156765338
20
121.51125577147468
30
0
40
2.7999999999999998
210
0
220
0
230
1
0
CIRCLE
5
158
100
AcDbEntity
8
0
100
AcDbCircle
10
165.08494131019455
20
121.51189162964548
30
0
40
2.8000000000000007
210
0
220
0
230
1
0
CIRCLE
5
159
100
AcDbEntity
8
0
100
AcDbCircle
10
165.08494131019455
20
121.51189162964548
30
0
40
4.7499999999999964
210
0
220
0
230
1
0
CIRCLE
5
160
100
AcDbEntity
8
0
100
AcDbCircle
10
33.00500156765338
20
121.51125577147468
30
0
40
4.7499999999999964
210
0
220
0
230
1
0
CIRCLE
5
161
100
AcDbEntity
8
0
100
AcDbCircle
10
166.18448264544131
20
-37.238465141665088
30
0
40
4.7500000000000009
210
0
220
0
230
1
0
CIRCLE
5
162
100
AcDbEntity
8
0
100
AcDbCircle
10
11.246252020555547
20
-37.240941394366956
30
0
40
4.7500000000000009
210
0
220
0
230
1
0
LINE
5
163
100
AcDbEntity
8
0
100
AcDbLine
10
105.00000084847996
20
-4.9999947852710207
30
0
11
110.60443858030966
21
-1.0757252380170672
31
0
0
LINE
5
164
100
AcDbEntity
8
0
100
AcDbLine
10
105.00000084847996
20
-4.9999947852710207
30
0
11
114.16028784300634
21
-4.999994785270963
31
0
0
LINE
5
165
100
AcDbEntity
8
0
100
AcDbLine
10
37.000015598760839
20
-4.9999947852710207
30
0
11
25.892235653942265
21
-0.95709351657799102
31
0
0
ARC
5
166
100
AcDbEntity
8
0
100
AcDbCircle
10
12.640409906620601
20
75.284455481781791
30
0
40
3.9999999999999996
210
0
220
0
230
1
100
AcDbArc
50
90.001584382009057
51
180
0
ARC
5
167
100
AcDbEntity
8
0
100
AcDbCircle
10
114.53749910116142
20
75.287273209654458
30
0
40
3.9999999999999236
210
-0
220
0
230
1
100
AcDbArc
50
-0.00024976345087262153
51
90.001584382009312
0
LINE
5
168
100
AcDbEntity
8
0
100
AcDbLine
10
50.660001601139086
20
-23.000000387430191
30
0
11
50.660001601139086
21
-15.500000387430191
31
0
0
LINE
5
169
100
AcDbEntity
8
0
100
AcDbLine
10
50.660001601139086
20
-15.500000387430191
30
0
11
75.260001601139095
21
-15.500000387430191
31
0
0
LINE
5
170
100
AcDbEntity
8
0
100
AcDbLine
10
75.260001601139095
20
-15.500000387430191
30
0
11
75.260001601139095
21
-23.000000387430191
31
0
0
ARC
5
171
100
AcDbEntity
8
0
100
AcDbCircle
10
47.660001601139101
20
-23.000000387430202
30
0
40
2.9999999999999893
210
-0
220
0
230
1
100
AcDbArc
50
-90
51
0
0
LINE
5
172
100
AcDbEntity
8
0
100
AcDbLine
10
138.56000673086382
20
-26.000000387430191
30
0
11
78.260001601139095
21
-26.000000387430191
31
0
0
ARC
5
173
100
AcDbEntity
8
0
100
AcDbCircle
10
78.260001601139081
20
-23.000000387430205
30
0
40
2.9999999999999805
210
0
220
-0
230
1
100
AcDbArc
50
180
51
270.00000000000023
0
LINE
5
174
100
AcDbEntity
8
0
100
AcDbLine
10
126.88700205861777
20
70.987509040588705
30
0
11
169.11028658500203
21
113.23888112131242
31
0
0
LINE
5
175
100
AcDbEntity
8
0
100
AcDbLine
10
105.00000084847996
20
-4.9999947852710207
30
0
11
104.0201773209732
21
-5.6860746053465361
31
0
0
LINE
5
176
100
AcDbEntity
8
0
100
AcDbLine
10
105.00000084847996
20
-4.9999947852710207
30
0
11
111.99828835882627
21
-4.999994785270963
31
0
0
LINE
5
177
100
AcDbEntity
8
0
100
AcDbLine
10
103.16733019367956
20
-7.324378693916465
30
0
11
103.16733019367956
21
-15.749998301096058
31
0
0
LINE
5
178
100
AcDbEntity
8
0
100
AcDbLine
10
102.16733019367956
20
-16.749998301096056
30
0
11
90.067330193715179
21
-16.749998301096056
31
0
0
LINE
5
179
100
AcDbEntity
8
0
100
AcDbLine
10
89.067330193712053
20
-13.042666990742566
30
0
11
89.067330193715179
21
-15.749998301096062
31
0
0
LINE
5
180
100
AcDbEntity
8
0
100
AcDbLine
10
88.245909012512811
20
-11.426822948826224
30
0
11
79.434659538879387
21
-4.9999947852710767
31
0
0
ARC
5
181
100
AcDbEntity
8
0
100
AcDbCircle
10
87.067330193749711
20
-13.042666990743335
30
0
40
1.9999999999623519
210
0
220
-0
230
1
100
AcDbArc
50
0
51
53.893401262579452
0
ARC
5
182
100
AcDbEntity
8
0
100
AcDbCircle
10
105.16733019366966
20
-7.3243786939164632
30
0
40
1.9999999999901639
210
0
220
0
230
1
100
AcDbArc
50
125.00000000000003
51
180
0
ARC
5
183
100
AcDbEntity
8
0
100
AcDbCircle
10
102.16733019367956
20
-15.74999830109606
30
0
40
0.99999999999999645
210
-0
220
0
230
1
100
AcDbArc
50
-90
51
0
0
ARC
5
184
100
AcDbEntity
8
0
100
AcDbCircle
10
90.067330193715179
20
-15.74999830109606
30
0
40
0.99999999999999645
210
0
220
0
230
1
100
AcDbArc
50
180
51
270
0
ENDSEC
0
SECTION
2
OBJECTS
0
DICTIONARY
5
C
100
AcDbDictionary
3
ACAD_GROUP
350
D
3
ACAD_MLINESTYLE
350
17
0
DICTIONARY
5
D
100
AcDbDictionary
0
DICTIONARY
5
1A
330
C
100
AcDbDictionary
0
DICTIONARY
5
17
100
AcDbDictionary
0
ENDSEC
0
EOF
